<svg width="133" height="47" viewBox="0 0 133 47" fill="none" xmlns="http://www.w3.org/2000/svg">
<path d="M14.216 36.528C9.992 36.528 6.696 35.392 4.328 33.12C1.96 30.848 0.776 27.76 0.776 23.856C0.776 21.328 1.272 19.12 2.264 17.232C3.288 15.344 4.696 13.872 6.488 12.816C8.312 11.728 10.44 11.184 12.872 11.184C15.272 11.184 17.272 11.696 18.872 12.72C20.504 13.744 21.72 15.184 22.52 17.04C23.352 18.864 23.768 20.992 23.768 23.424V25.104H6.728V21.504H18.488L17.672 22.176C17.672 20.16 17.256 18.64 16.424 17.616C15.624 16.56 14.456 16.032 12.92 16.032C11.224 16.032 9.912 16.656 8.984 17.904C8.088 19.152 7.64 20.944 7.64 23.28V24.048C7.64 26.416 8.216 28.176 9.368 29.328C10.552 30.48 12.248 31.056 14.456 31.056C15.768 31.056 17 30.896 18.152 30.576C19.336 30.224 20.456 29.68 21.512 28.944L23.528 33.744C22.312 34.64 20.904 35.328 19.304 35.808C17.736 36.288 16.04 36.528 14.216 36.528ZM28.3666 36V18C28.3666 16.976 28.3346 15.936 28.2706 14.88C28.2066 13.792 28.1106 12.72 27.9826 11.664H34.9426L35.4706 16.176H34.8946C35.6946 14.576 36.8306 13.344 38.3026 12.48C39.7746 11.616 41.4866 11.184 43.4386 11.184C46.2866 11.184 48.4146 12.016 49.8226 13.68C51.2626 15.312 51.9826 17.856 51.9826 21.312V36H44.7346V21.648C44.7346 19.888 44.4146 18.64 43.7746 17.904C43.1346 17.168 42.1746 16.8 40.8946 16.8C39.2946 16.8 38.0146 17.312 37.0546 18.336C36.0946 19.328 35.6146 20.672 35.6146 22.368V36H28.3666ZM55.8361 46.704C55.1321 46.704 54.4121 46.656 53.6761 46.56C52.9081 46.464 52.2201 46.288 51.6121 46.032V40.416C52.0601 40.544 52.5241 40.656 53.0041 40.752C53.4521 40.848 53.9001 40.896 54.3481 40.896C55.3721 40.896 56.2041 40.576 56.8441 39.936C57.5161 39.328 57.8521 38.256 57.8521 36.72V11.664H65.1001V37.056C65.1001 40.224 64.3481 42.624 62.8441 44.256C61.3721 45.888 59.0361 46.704 55.8361 46.704ZM57.5161 7.68V0.912H65.3401V7.68H57.5161ZM82.496 36.528C79.904 36.528 77.648 36.016 75.728 34.992C73.84 33.936 72.368 32.464 71.312 30.576C70.288 28.688 69.776 26.432 69.776 23.808C69.776 21.216 70.288 18.976 71.312 17.088C72.368 15.2 73.84 13.744 75.728 12.72C77.648 11.696 79.904 11.184 82.496 11.184C85.088 11.184 87.344 11.696 89.264 12.72C91.184 13.744 92.656 15.2 93.68 17.088C94.736 18.976 95.264 21.216 95.264 23.808C95.264 26.432 94.736 28.688 93.68 30.576C92.656 32.464 91.184 33.936 89.264 34.992C87.344 36.016 85.088 36.528 82.496 36.528ZM82.496 31.056C84.16 31.056 85.472 30.464 86.432 29.28C87.424 28.096 87.92 26.272 87.92 23.808C87.92 21.344 87.424 19.536 86.432 18.384C85.472 17.232 84.16 16.656 82.496 16.656C80.832 16.656 79.504 17.232 78.512 18.384C77.552 19.536 77.072 21.344 77.072 23.808C77.072 26.272 77.552 28.096 78.512 29.28C79.504 30.464 80.832 31.056 82.496 31.056ZM99.1423 46.896L97.4623 41.232C98.9663 40.944 100.23 40.608 101.254 40.224C102.31 39.84 103.174 39.328 103.846 38.688C104.518 38.08 105.062 37.28 105.478 36.288L106.678 33.456L106.486 36.24L95.9262 11.664H103.558L110.518 29.28H109.03L116.086 11.664H123.286L112.294 36.96C111.494 38.784 110.63 40.288 109.702 41.472C108.806 42.688 107.83 43.648 106.774 44.352C105.718 45.056 104.55 45.6 103.27 45.984C102.022 46.368 100.646 46.672 99.1423 46.896Z" fill="#3D1F00"/>
<path d="M125.149 36V28.32H132.925V36H125.149Z" fill="#ED455D"/>
</svg>
