<svg width="52" height="52" viewBox="0 0 52 52" fill="none" xmlns="http://www.w3.org/2000/svg">
<g clip-path="url(#clip0_3774_756)">
<path d="M13.7539 11.0937C12.459 11.3691 11.3633 12.4766 11.0879 13.7832C10.959 14.3984 10.959 37.6016 11.0879 38.2168C11.3633 39.5352 12.4648 40.6367 13.7832 40.9121C14.3984 41.041 37.6016 41.041 38.2168 40.9121C39.5352 40.6367 40.6367 39.5352 40.9121 38.2168C41.041 37.6016 41.041 14.3984 40.9121 13.7832C40.6367 12.4648 39.5352 11.3633 38.2168 11.0879C37.6191 10.9648 14.3398 10.9648 13.7539 11.0937ZM38.0879 13.5195C38.2109 13.6016 38.3809 13.7715 38.4687 13.8945L38.627 14.123V26V37.8711L38.4805 38.0879C38.3984 38.2109 38.2285 38.3809 38.1055 38.4687L37.877 38.627L34.3379 38.6445L30.8047 38.6621V33.8809V29.1055H32.6211C33.623 29.1055 34.4375 29.0879 34.4375 29.0703C34.4375 29.0176 34.959 25.8125 35 25.6309L35.0352 25.4727H32.9141H30.7988L30.8164 23.9902C30.834 22.5957 30.8398 22.4961 30.9687 22.2207C31.1445 21.8398 31.4551 21.5293 31.8242 21.3594C32.1055 21.2305 32.2051 21.2246 33.5469 21.207L34.9648 21.1895V19.373V17.5625H33.5176C32.3223 17.5625 31.9707 17.5859 31.5312 17.6738C29.4746 18.1016 27.8984 19.5898 27.3359 21.6465C27.2246 22.0508 27.207 22.2969 27.1836 23.7852L27.1602 25.4727H25.4082H23.6562V27.2891V29.1055H25.4141H27.1719V33.8809V38.6562L20.6504 38.6445L14.123 38.627L13.8945 38.4687C13.7715 38.3809 13.6016 38.2109 13.5195 38.0879L13.373 37.8711L13.3555 26.1289C13.3496 18.2891 13.3613 14.3105 13.4023 14.1641C13.4727 13.8945 13.8711 13.4844 14.1289 13.4082C14.2344 13.373 19.1328 13.3555 26.0937 13.3613L37.8711 13.373L38.0879 13.5195Z" fill="white"/>
</g>
<rect x="1" y="1" width="50" height="50" rx="9" stroke="white" stroke-width="2"/>
<defs>
<clipPath id="clip0_3774_756">
<rect width="30" height="30" fill="white" transform="translate(11 11)"/>
</clipPath>
</defs>
</svg>
