<svg width="32" height="32" viewBox="0 0 32 32" fill="none" xmlns="http://www.w3.org/2000/svg">
<path d="M7.40002 23.5C8.80002 22.5222 10.1889 21.7722 11.5667 21.25C12.9445 20.7277 14.4222 20.4666 16 20.4666C17.5778 20.4666 19.0611 20.7277 20.45 21.25C21.8389 21.7722 23.2334 22.5222 24.6334 23.5C25.6111 22.3 26.3056 21.0888 26.7167 19.8666C27.1278 18.6444 27.3334 17.3555 27.3334 16C27.3334 12.7777 26.25 10.0833 24.0834 7.91663C21.9167 5.74996 19.2222 4.66663 16 4.66663C12.7778 4.66663 10.0834 5.74996 7.91669 7.91663C5.75002 10.0833 4.66669 12.7777 4.66669 16C4.66669 17.3555 4.8778 18.6444 5.30002 19.8666C5.72224 21.0888 6.42224 22.3 7.40002 23.5ZM16 17C14.7111 17 13.6278 16.5611 12.75 15.6833C11.8722 14.8055 11.4334 13.7222 11.4334 12.4333C11.4334 11.1444 11.8722 10.0611 12.75 9.18329C13.6278 8.30551 14.7111 7.86663 16 7.86663C17.2889 7.86663 18.3722 8.30551 19.25 9.18329C20.1278 10.0611 20.5667 11.1444 20.5667 12.4333C20.5667 13.7222 20.1278 14.8055 19.25 15.6833C18.3722 16.5611 17.2889 17 16 17ZM16 29.3333C14.1778 29.3333 12.4556 28.9833 10.8334 28.2833C9.21113 27.5833 7.79446 26.6277 6.58335 25.4166C5.37224 24.2055 4.41669 22.7888 3.71669 21.1666C3.01669 19.5444 2.66669 17.8222 2.66669 16C2.66669 14.1555 3.01669 12.4277 3.71669 10.8166C4.41669 9.20551 5.37224 7.7944 6.58335 6.58329C7.79446 5.37218 9.21113 4.41663 10.8334 3.71663C12.4556 3.01663 14.1778 2.66663 16 2.66663C17.8445 2.66663 19.5722 3.01663 21.1834 3.71663C22.7945 4.41663 24.2056 5.37218 25.4167 6.58329C26.6278 7.7944 27.5834 9.20551 28.2834 10.8166C28.9834 12.4277 29.3334 14.1555 29.3334 16C29.3334 17.8222 28.9834 19.5444 28.2834 21.1666C27.5834 22.7888 26.6278 24.2055 25.4167 25.4166C24.2056 26.6277 22.7945 27.5833 21.1834 28.2833C19.5722 28.9833 17.8445 29.3333 16 29.3333ZM16 27.3333C17.2222 27.3333 18.4167 27.1555 19.5834 26.8C20.75 26.4444 21.9 25.8222 23.0334 24.9333C21.9 24.1333 20.7445 23.5222 19.5667 23.1C18.3889 22.6777 17.2 22.4666 16 22.4666C14.8 22.4666 13.6111 22.6777 12.4334 23.1C11.2556 23.5222 10.1 24.1333 8.96669 24.9333C10.1 25.8222 11.25 26.4444 12.4167 26.8C13.5834 27.1555 14.7778 27.3333 16 27.3333ZM16 15C16.7556 15 17.3722 14.7611 17.85 14.2833C18.3278 13.8055 18.5667 13.1888 18.5667 12.4333C18.5667 11.6777 18.3278 11.0611 17.85 10.5833C17.3722 10.1055 16.7556 9.86663 16 9.86663C15.2445 9.86663 14.6278 10.1055 14.15 10.5833C13.6722 11.0611 13.4334 11.6777 13.4334 12.4333C13.4334 13.1888 13.6722 13.8055 14.15 14.2833C14.6278 14.7611 15.2445 15 16 15Z" fill="white"/>
</svg>
