<svg width="48" height="48" viewBox="0 0 48 48" fill="none" xmlns="http://www.w3.org/2000/svg">
<g clip-path="url(#clip0_5465_4011)">
<path d="M23.9652 -0.0293072C24.0606 -0.0291051 24.156 -0.0289031 24.2544 -0.0286949C25.624 -0.0240383 26.9676 -0.000516728 28.3128 0.28124C28.4042 0.299866 28.4956 0.318492 28.5898 0.337682C33.1256 1.28649 37.2495 3.34116 40.5941 6.56249C40.6868 6.65138 40.6868 6.65138 40.7814 6.74207C41.6709 7.59936 42.4903 8.47099 43.2191 9.46874C43.2995 9.57665 43.38 9.68456 43.4604 9.79247C44.0265 10.5604 44.5289 11.3586 45.0003 12.1875C45.0345 12.2467 45.0687 12.306 45.1039 12.367C47.1294 15.9059 48.0451 19.9152 48.0296 23.9648C48.0294 24.0603 48.0292 24.1557 48.029 24.254C48.0244 25.6236 48.0008 26.9672 47.7191 28.3125C47.6912 28.4496 47.6912 28.4496 47.6626 28.5894C46.7371 33.0141 44.7637 37.0453 41.6656 40.3484C41.483 40.545 41.3093 40.744 41.139 40.9512C40.8929 41.2422 40.6184 41.4862 40.3279 41.7323C40.193 41.8481 40.0609 41.967 39.9316 42.089C38.7572 43.1939 37.4103 44.1281 36.0003 44.9062C35.9231 44.9495 35.8458 44.9927 35.7662 45.0373C33.5333 46.2778 31.1658 47.1338 28.6644 47.6484C28.5959 47.6626 28.5274 47.6768 28.4569 47.6914C26.9855 47.9755 25.5303 48.035 24.0355 48.0293C23.8924 48.029 23.8924 48.029 23.7463 48.0287C22.3767 48.024 21.0331 48.0005 19.6878 47.7187C19.5508 47.6908 19.5508 47.6908 19.4109 47.6623C15.3544 46.8137 11.5855 45.0902 8.43784 42.375C8.36799 42.3155 8.29814 42.2561 8.22617 42.1948C6.96008 41.0875 5.77213 39.8922 4.78159 38.5312C4.70129 38.4234 4.62097 38.3156 4.54062 38.2079C3.97437 37.4401 3.46968 36.6428 3.00034 35.8125C2.96263 35.7462 2.92493 35.6799 2.88608 35.6116C1.69664 33.4989 0.904138 31.2241 0.398777 28.8574C0.380136 28.7707 0.361495 28.684 0.342289 28.5947C0.0336761 27.0753 -0.0348453 25.5815 -0.028957 24.0351C-0.028755 23.9397 -0.028553 23.8443 -0.0283448 23.746C-0.0236882 22.3764 -0.000166588 21.0327 0.28159 19.6875C0.300216 19.5961 0.318842 19.5047 0.338032 19.4105C1.28684 14.8747 3.34151 10.7508 6.56284 7.40624C6.6221 7.34443 6.68136 7.28261 6.74242 7.21892C7.59971 6.3294 8.47134 5.51003 9.46909 4.78124C9.577 4.7008 9.68491 4.62035 9.79282 4.53991C10.5606 3.97389 11.3577 3.46925 12.1878 2.99999C12.2541 2.96228 12.3204 2.92458 12.3888 2.88573C14.5577 1.6646 16.9175 0.844395 19.3539 0.345693C19.4213 0.331878 19.4886 0.318064 19.5581 0.30383C21.0249 0.0250312 22.4756 -0.0349794 23.9652 -0.0293072Z" fill="white"/>
<path d="M20.9994 8.8125C21.1905 9.0036 21.248 9.11877 21.3462 9.36511C21.376 9.43863 21.4059 9.51216 21.4366 9.58791C21.4683 9.66653 21.5 9.74516 21.5326 9.82617C22.1865 11.408 23.0079 12.8107 24.199 14.049C24.3744 14.25 24.3744 14.25 24.3744 14.4375C24.4279 14.4607 24.4815 14.4839 24.5366 14.5078C24.7827 14.6433 24.9518 14.8047 25.1537 15C27.2083 16.8665 29.913 17.8526 32.6361 18.1992C32.7582 18.2149 32.8802 18.2306 33.006 18.2468C33.142 18.2639 33.142 18.2639 33.2807 18.2812C33.0629 19.196 32.6812 20.0043 31.8744 20.5312C31.5111 20.6074 31.5111 20.6074 31.2182 20.625C31.2034 20.6815 31.1886 20.7379 31.1733 20.7961C31.0011 21.414 30.7631 21.9637 30.4623 22.5293C30.3939 22.6582 30.3939 22.6582 30.3242 22.7896C29.7312 23.882 28.8063 25.3934 27.6557 25.9688C27.6557 26.0306 27.6557 26.0925 27.6557 26.1562C27.7135 26.1768 27.7714 26.1973 27.8311 26.2185C29.5373 26.8574 30.6994 28.1026 31.4756 29.7312C31.6947 30.2323 31.8744 30.6684 31.8744 31.2188C32.1193 31.2867 32.3643 31.3537 32.6098 31.4194C32.7902 31.4686 32.9701 31.5198 33.1488 31.5747C33.7986 31.762 34.4374 31.8238 35.1088 31.875C36.634 31.9943 38.1054 32.289 39.1869 33.4688C40.4942 35.0659 40.7593 36.9429 40.7667 38.9425C40.769 39.2307 40.7782 39.5182 40.7876 39.8062C40.811 41.2248 40.811 41.2248 40.4942 41.6665C40.2594 41.9051 40.0258 42.0933 39.7494 42.2812C39.64 42.374 39.5312 42.4675 39.4235 42.5621C35.3571 45.7154 30.4272 47.9929 25.1965 48.019C25.0637 48.02 25.0637 48.02 24.9281 48.021C21.2322 48.0424 21.2322 48.0424 19.6869 47.7188C19.5498 47.6908 19.5498 47.6908 19.41 47.6623C14.873 46.7132 10.6106 44.6425 7.3119 41.3438C7.28683 41.1676 7.28683 41.1676 7.28467 40.9504C7.28347 40.8689 7.28227 40.7874 7.28104 40.7035C7.28083 40.6148 7.28062 40.5262 7.28041 40.4348C7.27978 40.3429 7.27916 40.251 7.27852 40.1563C7.27757 39.9607 7.27713 39.7651 7.27716 39.5695C7.27675 39.2752 7.27337 38.9811 7.26979 38.6869C7.25859 36.6892 7.61056 34.8107 8.9994 33.2812C10.1008 32.2719 11.2904 32.028 12.7278 31.9175C13.7504 31.8362 14.7308 31.6135 15.7047 31.2909C15.9369 31.2188 15.9369 31.2188 16.1244 31.2188C16.1283 31.1066 16.1321 30.9945 16.1361 30.8789C16.3079 29.4153 17.3183 28.0158 18.4194 27.0846C19.649 26.1562 19.649 26.1562 20.3432 26.1562C20.3432 26.0634 20.3432 25.9706 20.3432 25.875C20.2668 25.844 20.2668 25.844 20.189 25.8124C19.2532 25.2832 18.5568 24.2282 17.9994 23.3438C17.9407 23.2521 17.8819 23.1605 17.8214 23.0662C16.7807 21.3709 16.7807 21.3709 16.7807 20.625C16.6646 20.6453 16.6646 20.6453 16.5463 20.666C15.9471 20.5911 15.6082 20.1218 15.2162 19.6934C14.8457 19.1338 14.6886 18.4569 14.5307 17.8125C14.4884 17.6584 14.4884 17.6584 14.4453 17.5012C14.3932 17.1655 14.3904 16.9993 14.5307 16.6875C14.9356 16.3041 15.4419 16.047 15.9241 15.7744C18.2966 14.3756 19.8711 11.7386 20.7859 9.22522C20.9057 8.90625 20.9057 8.90625 20.9994 8.8125Z" fill="#FFBB00"/>
<path d="M27.2812 4.68753C27.3791 4.72137 27.477 4.75521 27.5779 4.79007C29.857 5.62274 31.5174 7.15449 32.5448 9.3472C33.1253 10.6529 33.2762 11.9974 33.4054 13.4103C33.4461 13.8539 33.498 14.294 33.5592 14.7353C33.663 15.4922 33.7368 16.251 33.8092 17.0115C34.0285 19.3016 34.2637 21.59 34.7308 23.845C34.7862 24.1182 34.8379 24.3919 34.8893 24.6658C35.3832 27.2724 36.1604 29.8158 37.2188 32.25C37.1561 32.2373 37.0935 32.2246 37.029 32.2115C36.4946 32.1079 35.9729 32.04 35.4299 32.0079C34.2383 31.9364 32.9571 31.7598 31.875 31.2188C31.7824 30.9559 31.6982 30.6942 31.6172 30.4278C31.4021 29.7567 31.1704 29.1663 30.75 28.5938C30.6873 28.5083 30.6246 28.4229 30.5599 28.3349C29.7381 27.2761 28.7989 26.6421 27.5625 26.1563C27.667 25.8429 27.7476 25.7756 27.9961 25.5703C29.3983 24.3699 30.5022 22.7117 31.0833 20.9491C31.2188 20.625 31.2188 20.625 31.4077 20.5166C31.5114 20.5007 31.5114 20.5007 31.6172 20.4844C32.1601 20.341 32.4228 20.0638 32.7188 19.5938C32.9343 19.1681 33.1105 18.7265 33.2812 18.2813C33.162 18.2743 33.0427 18.2673 32.9198 18.26C31.1112 18.1332 29.4703 17.6704 27.8438 16.875C27.7413 16.8262 27.6388 16.7774 27.5332 16.7271C26.0981 16.0025 24.7357 14.9337 23.7188 13.6875C23.6462 13.5998 23.5737 13.5121 23.499 13.4217C22.5249 12.2169 21.866 10.8757 21.2642 9.45496C21.182 9.26885 21.0923 9.08759 21 8.90628C20.9817 8.95523 20.9634 9.00417 20.9445 9.0546C20.1773 11.0869 19.218 12.7551 17.7188 14.3438C17.6557 14.4129 17.5926 14.482 17.5276 14.5533C16.702 15.4252 15.6937 16.1438 14.625 16.6875C14.5352 17.741 14.7421 18.8767 15.3691 19.752C15.4614 19.8586 15.5569 19.9625 15.6562 20.0625C15.7028 20.1104 15.7493 20.1582 15.7972 20.2076C16.0336 20.4272 16.1686 20.5297 16.4956 20.5401C16.7812 20.625 16.7812 20.625 16.8818 20.7748C16.9754 20.9898 17.0553 21.2065 17.1328 21.4278C17.7079 22.9218 18.8533 25.1298 20.3438 25.875C20.3438 25.9678 20.3438 26.0607 20.3438 26.1563C20.2415 26.1924 20.2415 26.1924 20.1372 26.2292C18.439 26.8758 17.3432 28.0798 16.5634 29.6946C16.3771 30.1355 16.3771 30.1355 16.2982 30.6039C16.2811 30.8577 16.261 31.0021 16.125 31.2188C15.6791 31.4601 15.2093 31.5759 14.7188 31.6875C14.6008 31.7152 14.4829 31.7429 14.3613 31.7714C13.403 31.9707 12.4349 32.0558 11.4601 32.1329C11.2302 32.1585 11.0074 32.2018 10.7812 32.25C10.914 31.9102 11.0468 31.5703 11.1797 31.2305C11.2168 31.1355 11.2539 31.0405 11.2921 30.9427C11.329 30.8484 11.3658 30.7541 11.4038 30.657C11.4408 30.5623 11.4778 30.4676 11.516 30.37C11.6166 30.1149 11.72 29.8612 11.8239 29.6075C11.9956 29.1781 12.1374 28.7456 12.2637 28.3008C12.2986 28.1777 12.2986 28.1777 12.3343 28.0521C12.549 27.2736 12.7288 26.4877 12.9023 25.6993C12.9283 25.582 12.9543 25.4648 12.981 25.344C13.3761 23.511 13.6574 21.6665 13.875 19.8047C13.8869 19.7049 13.8987 19.6051 13.911 19.5022C14.0823 18.0599 14.2312 16.6165 14.3613 15.17C14.9593 8.54782 14.9593 8.54782 17.625 6.28128C20.2877 4.19618 24.0646 3.56702 27.2812 4.68753Z" fill="#353843"/>
<path d="M20.9991 8.8125C21.1902 9.0036 21.2477 9.11877 21.3459 9.36511C21.3758 9.43863 21.4056 9.51216 21.4364 9.58791C21.4839 9.70585 21.4839 9.70585 21.5323 9.82617C22.1862 11.408 23.0076 12.8107 24.1987 14.049C24.3741 14.25 24.3741 14.25 24.3741 14.4375C24.4277 14.4607 24.4812 14.4839 24.5364 14.5078C24.7824 14.6433 24.9515 14.8047 25.1534 15C27.208 16.8665 29.9127 17.8526 32.6358 18.1992C32.7579 18.2149 32.88 18.2306 33.0057 18.2468C33.1417 18.2639 33.1417 18.2639 33.2804 18.2812C33.0627 19.196 32.6809 20.0043 31.8741 20.5312C31.5108 20.6074 31.5108 20.6074 31.2179 20.625C31.2031 20.6815 31.1883 20.7379 31.173 20.7961C31.0008 21.414 30.7628 21.9637 30.462 22.5293C30.3937 22.6582 30.3937 22.6582 30.3239 22.7896C29.7309 23.882 28.806 25.3934 27.6554 25.9688C27.6554 26.0306 27.6554 26.0925 27.6554 26.1562C27.7133 26.1768 27.7711 26.1973 27.8308 26.2185C29.5086 26.8467 30.7071 28.0817 31.4612 29.6958C31.8579 30.6125 32.0442 31.5513 32.1615 32.5369C32.1851 32.7337 32.2105 32.9302 32.2361 33.1267C32.3563 34.0848 32.3563 34.0848 32.2491 34.4062C32.1777 34.3099 32.1063 34.2136 32.0327 34.1144C30.5573 31.917 30.5573 31.917 28.4054 30.5625C28.3949 30.6618 28.3949 30.6618 28.3841 30.7632C28.04 33.4487 26.8622 36.119 25.6866 38.5312C25.6379 38.6315 25.5892 38.7317 25.539 38.835C25.39 39.1405 25.2399 39.4454 25.089 39.75C25.0204 39.8885 25.0204 39.8885 24.9504 40.0299C24.6894 40.5493 24.4092 41.0435 24.0929 41.5312C23.7128 41.4046 23.6862 41.2491 23.5062 40.8962C23.4777 40.8409 23.4491 40.7855 23.4197 40.7285C23.3267 40.5473 23.2351 40.3655 23.1437 40.1836C23.0798 40.0579 23.0158 39.9322 22.9519 39.8065C22.7957 39.4987 22.6409 39.1903 22.4867 38.8815C22.4156 38.7391 22.344 38.597 22.2723 38.4548C21.0718 36.0648 20.0069 33.4027 19.5929 30.75C19.0514 30.7287 18.8156 30.7625 18.4067 31.1005C17.5396 31.9358 16.8187 32.8943 16.1288 33.8775C16.0804 33.9465 16.0319 34.0155 15.982 34.0865C15.9392 34.1483 15.8964 34.21 15.8523 34.2737C15.8012 34.3393 15.8012 34.3393 15.7491 34.4062C15.7182 34.4062 15.6872 34.4062 15.6554 34.4062C15.8875 31.676 16.1595 29.1627 18.2745 27.2051C18.8319 26.7413 19.5925 26.1562 20.3429 26.1562C20.3429 26.0634 20.3429 25.9706 20.3429 25.875C20.2666 25.844 20.2666 25.844 20.1887 25.8124C19.2529 25.2832 18.5565 24.2282 17.9991 23.3438C17.9404 23.2521 17.8817 23.1605 17.8211 23.0662C16.7804 21.3709 16.7804 21.3709 16.7804 20.625C16.6644 20.6453 16.6644 20.6453 16.546 20.666C15.9468 20.5911 15.6079 20.1218 15.2159 19.6934C14.8454 19.1338 14.6884 18.4569 14.5304 17.8125C14.5022 17.7098 14.4741 17.6071 14.445 17.5012C14.3929 17.1655 14.3901 16.9993 14.5304 16.6875C14.9353 16.3041 15.4416 16.047 15.9238 15.7744C18.2963 14.3756 19.8708 11.7386 20.7856 9.22522C20.9054 8.90625 20.9054 8.90625 20.9991 8.8125Z" fill="#F7CEA2"/>
<path d="M20.3437 26.1562C20.4983 26.9148 20.3608 27.5394 19.9453 28.1953C19.7485 28.5608 19.7697 28.6695 19.875 29.0625C20.0225 29.3128 20.0225 29.3128 20.2148 29.5488C20.8904 30.418 21.3694 31.262 21.7031 32.3145C21.782 32.5527 21.8612 32.7907 21.9412 33.0286C21.9623 33.0919 21.9835 33.1552 22.0053 33.2204C22.2738 34.0168 22.5679 34.8038 22.8629 35.5907C22.9252 35.7569 22.9873 35.9232 23.0492 36.0896C23.137 36.3251 23.2252 36.5605 23.3137 36.7958C23.3396 36.8653 23.3654 36.9348 23.3921 37.0065C23.5672 37.4687 23.773 37.9046 24 38.3438C24.2099 37.807 24.4188 37.2698 24.627 36.7324C24.6585 36.6511 24.6901 36.5697 24.7226 36.4859C25.0786 35.566 25.4266 34.6445 25.7479 33.7119C25.7748 33.6342 25.8016 33.5565 25.8292 33.4764C25.9564 33.1068 26.0819 32.7368 26.2052 32.3658C26.5548 31.3298 27.0057 30.4094 27.6914 29.5488C28.0725 29.0325 28.0725 29.0325 28.125 28.4062C28.0157 28.1533 27.8938 27.9087 27.7701 27.6625C27.5771 27.1753 27.5716 26.6754 27.5625 26.1562C29.1855 26.6032 30.3569 27.712 31.1895 29.1478C31.7565 30.2239 32.0197 31.3381 32.1624 32.5369C32.1859 32.7337 32.2114 32.9302 32.237 33.1267C32.3571 34.0848 32.3571 34.0848 32.25 34.4062C32.1786 34.3099 32.1072 34.2136 32.0336 34.1144C30.5582 31.917 30.5582 31.917 28.4062 30.5625C28.3992 30.6287 28.3922 30.695 28.385 30.7632C28.0409 33.4487 26.8631 36.119 25.6875 38.5312C25.6388 38.6315 25.5901 38.7317 25.5399 38.835C25.3909 39.1405 25.2407 39.4454 25.0898 39.75C25.0213 39.8885 25.0213 39.8885 24.9513 40.0299C24.6903 40.5493 24.4101 41.0435 24.0937 41.5312C23.7137 41.4046 23.6871 41.2491 23.5071 40.8962C23.4785 40.8409 23.45 40.7855 23.4206 40.7285C23.3276 40.5473 23.236 40.3655 23.1445 40.1836C23.0806 40.0579 23.0167 39.9322 22.9528 39.8065C22.7966 39.4987 22.6418 39.1903 22.4876 38.8815C22.4164 38.7391 22.3448 38.597 22.2732 38.4548C21.0726 36.0648 20.0078 33.4027 19.5937 30.75C19.0523 30.7287 18.8165 30.7625 18.4076 31.1005C17.5405 31.9358 16.8195 32.8943 16.1297 33.8775C16.057 33.981 16.057 33.981 15.9829 34.0865C15.9401 34.1483 15.8973 34.21 15.8532 34.2737C15.8191 34.3174 15.7851 34.3612 15.75 34.4062C15.7191 34.4062 15.6881 34.4062 15.6562 34.4062C15.8884 31.676 16.1604 29.1627 18.2754 27.2051C18.8328 26.7413 19.5934 26.1562 20.3437 26.1562Z" fill="#E7E6E5"/>
<path d="M20.3438 25.9688C20.432 26.0196 20.5202 26.0705 20.6111 26.1229C20.729 26.1907 20.8469 26.2584 20.9648 26.3262C21.0227 26.3596 21.0806 26.393 21.1403 26.4274C21.3116 26.5257 21.4838 26.6224 21.6563 26.7188C21.7459 26.7694 21.8356 26.82 21.928 26.8722C23.1025 27.3885 24.6702 27.3695 25.8636 26.9396C26.411 26.7018 26.9424 26.4372 27.4688 26.1562C27.5799 26.4774 27.6766 26.789 27.7383 27.123C27.819 27.5137 27.9628 27.8375 28.1525 28.1873C28.2525 28.5179 28.2119 28.728 28.125 29.0625C27.9295 29.3998 27.6845 29.6999 27.4448 30.0064C26.7447 30.9401 26.3961 32.049 26.0345 33.1468C25.4318 34.9708 24.7184 36.7504 24 38.5312C23.6887 38.0643 23.5211 37.5298 23.3203 37.0078C23.2961 36.9453 23.272 36.8828 23.247 36.8183C22.7486 35.5278 22.2801 34.2267 21.8177 32.9228C21.6714 32.5106 21.524 32.0988 21.375 31.6875C21.3223 31.5421 21.3223 31.5421 21.2686 31.3938C21.0904 30.9235 20.892 30.5575 20.5781 30.1641C19.7005 29.052 19.7005 29.052 19.6875 28.5C19.7981 28.2319 19.7981 28.2319 19.957 27.9609C20.3203 27.284 20.3464 26.7203 20.3438 25.9688Z" fill="#F0B97C"/>
<path d="M22.5938 7.875C22.7571 8.09036 22.9124 8.30613 23.0625 8.53125C23.0316 8.34562 23.0006 8.16 22.9688 7.96875C23.2809 8.32776 23.4425 8.75393 23.625 9.1875C23.5929 9.10103 23.5929 9.10103 23.5602 9.01282C23.5332 8.93704 23.5063 8.86127 23.4785 8.7832C23.4513 8.70816 23.4241 8.63311 23.3961 8.55579C23.3438 8.34375 23.3438 8.34375 23.4375 8.0625C23.6231 8.40281 23.8088 8.74312 24 9.09375C23.9381 8.93906 23.8763 8.78438 23.8125 8.625C23.8434 8.53219 23.8744 8.43937 23.9062 8.34375C24.0609 8.65312 24.2156 8.9625 24.375 9.28125C24.3131 9.03375 24.2513 8.78625 24.1875 8.53125C24.4257 8.74714 24.5692 8.96936 24.7207 9.25195C24.7617 9.32773 24.8026 9.4035 24.8448 9.48157C24.8907 9.56804 24.8907 9.56804 24.9375 9.65625C24.8851 9.52755 24.8851 9.52755 24.8317 9.39624C24.7873 9.28482 24.743 9.17339 24.6973 9.05859C24.6527 8.94765 24.6081 8.83671 24.5621 8.72241C24.4688 8.4375 24.4688 8.4375 24.5625 8.25C24.8409 8.77594 25.1194 9.30187 25.4062 9.84375C25.327 9.64652 25.2477 9.4493 25.166 9.24609C25.0837 9.04141 25.0062 8.83463 24.9375 8.625C24.9684 8.56312 24.9994 8.50125 25.0312 8.4375C25.2788 8.87062 25.5262 9.30375 25.7812 9.75C25.6623 9.50347 25.6623 9.50347 25.541 9.25195C25.3008 8.75391 25.3008 8.75391 25.4062 8.4375C25.53 8.685 25.6537 8.9325 25.7812 9.1875C25.7348 8.86266 25.7348 8.86266 25.6875 8.53125C25.8948 8.79593 26.0742 9.07226 26.2506 9.35829C26.6614 10.0203 27.1123 10.5956 27.6562 11.1562C27.7124 11.2193 27.7686 11.2824 27.8265 11.3474C28.6471 12.2371 29.7343 12.837 30.8176 13.35C31.1336 13.4998 31.4175 13.6515 31.6875 13.875C30.9727 13.793 30.9727 13.793 30.6562 13.6875C31.0739 13.8731 31.0739 13.8731 31.5 14.0625C31.0734 14.1691 30.8784 14.1027 30.4688 13.9688C30.8709 14.1234 31.2731 14.2781 31.6875 14.4375C31.2467 14.5477 30.9951 14.4508 30.5859 14.3027C30.3616 14.2235 30.1373 14.1442 29.9062 14.0625C30.6488 14.3873 30.6488 14.3873 31.4062 14.7188C31.0312 14.8125 31.0312 14.8125 30.5625 14.7188C30.8719 14.8425 31.1812 14.9662 31.5 15.0938C31.5 15.1247 31.5 15.1556 31.5 15.1875C31.2216 15.1566 30.9431 15.1256 30.6562 15.0938C30.9656 15.2175 31.275 15.3412 31.5938 15.4688C31.2188 15.5625 31.2188 15.5625 30.75 15.4688C31.1522 15.6234 31.5544 15.7781 31.9688 15.9375C31.3991 16.0799 31.0166 15.8528 30.4688 15.6562C31.1184 15.9038 31.7681 16.1512 32.4375 16.4062C31.8335 16.5572 31.3389 16.3049 30.75 16.125C31.245 16.3106 31.74 16.4963 32.25 16.6875C31.8656 16.7836 31.7936 16.7812 31.4432 16.656C31.3177 16.6114 31.3177 16.6114 31.1897 16.5658C31.1007 16.5325 31.0116 16.4992 30.9199 16.4648C30.8278 16.4306 30.7356 16.3963 30.6406 16.3609C28.6954 15.6179 27.0733 14.489 25.5938 13.0312C25.5221 12.9608 25.4504 12.8903 25.3766 12.8177C24.3146 11.7064 22.5938 9.49499 22.5938 7.875Z" fill="#434550"/>
<path d="M20.3438 26.1562C20.4983 26.9148 20.3608 27.5394 19.9453 28.1953C19.7484 28.561 19.7694 28.6692 19.875 29.0625C20.0256 29.3192 20.0256 29.3192 20.2207 29.5605C20.5616 30.0089 20.88 30.4658 21.1875 30.9375C21.1411 31.0303 21.1411 31.0303 21.0938 31.125C21.037 31.0912 20.9802 31.0573 20.9216 31.0225C20.2726 30.663 19.7593 30.5256 19.0294 30.702C17.7418 31.2134 16.7207 33.0326 15.9543 34.1261C15.8869 34.2185 15.8195 34.311 15.75 34.4062C15.7191 34.4062 15.6881 34.4062 15.6562 34.4062C15.8884 31.676 16.1604 29.1627 18.2754 27.2051C18.8328 26.7413 19.5934 26.1562 20.3438 26.1562Z" fill="#FAFAF8"/>
<path d="M27.5625 26.1562C29.1855 26.6032 30.3569 27.712 31.1895 29.1478C31.7565 30.2239 32.0197 31.3381 32.1624 32.5369C32.1859 32.7337 32.2114 32.9302 32.237 33.1267C32.3571 34.0848 32.3571 34.0848 32.25 34.4062C32.1786 34.3099 32.1072 34.2136 32.0336 34.1144C30.6953 32.0448 30.6953 32.0448 28.793 30.6815C27.9904 30.5797 27.3826 30.7746 26.7188 31.2188C26.84 30.7939 27.0024 30.4914 27.2695 30.1406C27.3361 30.0512 27.4027 29.9618 27.4713 29.8696C27.5756 29.7316 27.6802 29.5938 27.7855 29.4565C28.0396 29.1078 28.1321 28.8386 28.125 28.4062C28.0177 28.1521 27.8939 27.909 27.7701 27.6625C27.5771 27.1753 27.5716 26.6754 27.5625 26.1562Z" fill="#FAFAF8"/>
<path d="M19.6875 8.4375C19.8281 8.56641 19.8281 8.56641 19.9688 8.71875C19.9688 8.78063 19.9688 8.8425 19.9688 8.90625C19.9069 8.96813 19.845 9.03 19.7812 9.09375C19.8122 9.09375 19.8431 9.09375 19.875 9.09375C19.7189 10.7233 18.8075 12.2055 17.625 13.3125C17.4059 13.4924 17.1808 13.662 16.9512 13.8281C16.8966 13.8677 16.842 13.9072 16.7858 13.9479C16.453 14.1788 16.1397 14.3287 15.75 14.4375C15.875 14.3125 16 14.1875 16.125 14.0625C15.9394 14.1244 15.7537 14.1862 15.5625 14.25C15.6553 14.1572 15.7481 14.0644 15.8438 13.9688C15.6117 14.0152 15.6117 14.0152 15.375 14.0625C15.5 13.9375 15.625 13.8125 15.75 13.6875C15.6881 13.6566 15.6263 13.6256 15.5625 13.5938C15.6782 13.5203 15.6782 13.5203 15.7961 13.4454C17.622 12.2554 18.4403 10.6322 19.125 8.625C19.1559 8.625 19.1869 8.625 19.2188 8.625C19.2188 8.84156 19.2188 9.05812 19.2188 9.28125C19.2806 9.06469 19.3425 8.84813 19.4062 8.625C19.4372 8.625 19.4681 8.625 19.5 8.625C19.5 8.81063 19.5 8.99625 19.5 9.1875C19.5619 8.94 19.6237 8.6925 19.6875 8.4375Z" fill="#424450"/>
<path d="M16.0312 15.8438C16.0349 16.0076 16.0349 16.0076 16.0386 16.1748C16.0791 17.4621 16.2643 18.7037 16.5 19.9688C15.7144 19.3417 15.3181 18.6289 15.1875 17.625C15.1475 17.1879 15.1174 16.7508 15.0938 16.3125C15.2145 16.2339 15.3357 16.1559 15.457 16.0781C15.5245 16.0346 15.5919 15.9911 15.6614 15.9463C15.8438 15.8438 15.8438 15.8438 16.0312 15.8438Z" fill="#F0B97C"/>
<path d="M31.7812 18.0938C32.1525 18.1247 32.5238 18.1556 32.9062 18.1875C32.8134 18.2184 32.7206 18.2494 32.625 18.2812C32.6192 18.3431 32.6134 18.405 32.6074 18.4688C32.4216 19.155 32.0449 19.5147 31.5 19.9688C31.5928 19.35 31.6856 18.7313 31.7812 18.0938Z" fill="#EEB87D"/>
<path d="M20.3431 26.4375C20.374 26.4375 20.405 26.4375 20.4368 26.4375C20.4333 27.2339 20.1667 27.8129 19.7806 28.5C19.7497 28.5 19.7187 28.5 19.6868 28.5C19.6514 27.9203 19.6902 27.5146 19.9681 27C20.1204 26.8359 20.1204 26.8359 20.2493 26.7188C20.2803 26.6259 20.3112 26.5331 20.3431 26.4375Z" fill="#E7E4E1"/>
<path d="M27.6567 26.8125C27.9996 27.1212 28.2037 27.3802 28.2301 27.8529C28.2308 28.0374 28.2254 28.2219 28.2192 28.4062C27.8181 27.9289 27.6108 27.4389 27.6567 26.8125Z" fill="#E7E4E2"/>
</g>
<defs>
<clipPath id="clip0_5465_4011">
<rect width="48" height="48" fill="white"/>
</clipPath>
</defs>
</svg>
