<svg width="36" height="34" viewBox="0 0 36 34" fill="none" xmlns="http://www.w3.org/2000/svg">
<path d="M17.9385 0.286031C18.0114 0.286158 18.0843 0.286285 18.1594 0.286415C19.2087 0.289486 20.2294 0.317161 21.2629 0.516179C21.3278 0.527732 21.3927 0.539286 21.4596 0.551189C25.0479 1.19455 28.3871 2.82493 31.0214 5.37967C31.0638 5.42023 31.1061 5.46079 31.1498 5.50258C31.8482 6.17422 32.4557 6.87856 33.0144 7.67246C33.0603 7.73672 33.0603 7.73672 33.1071 7.80229C34.6002 9.9061 35.624 12.5988 35.6398 15.2101C35.6403 15.264 35.6407 15.318 35.6412 15.3736C35.6424 15.5466 35.6429 15.7196 35.643 15.8926C35.6431 15.9814 35.6431 15.9814 35.6431 16.0719C35.642 16.9481 35.6114 17.7924 35.4196 18.65C35.4079 18.7059 35.3961 18.7618 35.3839 18.8194C34.8704 21.2214 33.7744 23.3932 32.1897 25.2505C32.1525 25.2946 32.1152 25.3387 32.0769 25.3841C31.3061 26.288 30.4642 27.1187 29.5095 27.8212C29.4305 27.8807 29.3515 27.9402 29.2725 27.9998C28.7096 28.4195 28.1252 28.7933 27.5166 29.1413C27.4687 29.1689 27.4209 29.1964 27.3715 29.2248C25.4738 30.3072 23.4014 30.9783 21.2629 31.3646C21.1738 31.3818 21.1738 31.3818 21.083 31.3994C19.0497 31.7811 16.6949 31.7583 14.6656 31.3646C14.5985 31.3523 14.5314 31.34 14.4622 31.3274C13.653 31.1775 12.8625 30.9921 12.0828 30.7248C11.7746 30.6229 11.5486 30.5618 11.2295 30.6698C11.0647 30.7898 11.0647 30.7898 10.9159 30.9477C9.91569 31.9002 8.66259 32.556 7.38101 33.0321C7.33678 33.0486 7.29254 33.065 7.24696 33.082C6.1644 33.4751 5.03375 33.6775 3.88478 33.7052C3.81661 33.7082 3.74844 33.7112 3.67821 33.7143C3.22691 33.7151 2.99551 33.6133 2.67056 33.2961C2.46549 33.0399 2.47826 32.76 2.48322 32.445C2.52615 32.0343 2.76976 31.785 3.03434 31.4949C4.05724 30.3606 4.59985 28.7564 4.55643 27.2282C4.54252 26.9847 4.52063 26.7436 4.49469 26.5011C4.49096 26.4438 4.48724 26.3865 4.48341 26.3274C4.42841 25.8826 4.17322 25.6506 3.87404 25.3368C2.3908 23.744 1.43948 21.6329 0.852412 19.5533C0.831417 19.4811 0.810422 19.4089 0.78879 19.3345C0.733681 19.1305 0.688527 18.9266 0.646246 18.7195C0.627111 18.6323 0.607976 18.5451 0.588261 18.4552C0.263055 16.7901 0.280634 14.8168 0.646246 13.1613C0.659899 13.098 0.673553 13.0348 0.68762 12.9696C1.459 9.49788 3.52762 6.26066 6.36954 4.14809C6.48971 4.05801 6.60777 3.96558 6.72574 3.87258C8.94746 2.1431 11.6469 1.1103 14.3778 0.568287C14.4301 0.557786 14.4825 0.547285 14.5365 0.536466C15.668 0.32458 16.7904 0.281893 17.9385 0.286031ZM7.72463 13.7171C7.68086 13.7585 7.6371 13.7998 7.59201 13.8425C7.00874 14.4524 6.80813 15.2416 6.80478 16.0664C6.81933 16.8663 7.11749 17.5134 7.6559 18.0942C7.71729 18.1606 7.71729 18.1606 7.77993 18.2283C8.38322 18.818 9.16382 19.0208 9.97969 19.0242C10.7709 19.0095 11.4109 18.708 11.9854 18.1637C12.051 18.1016 12.051 18.1016 12.118 18.0383C12.7013 17.4284 12.9019 16.6392 12.9052 15.8143C12.8907 15.0144 12.5925 14.3673 12.0541 13.7866C11.9927 13.7202 11.9927 13.7202 11.9301 13.6525C11.3268 13.0628 10.5462 12.86 9.73034 12.8566C8.93913 12.8713 8.29908 13.1727 7.72463 13.7171ZM15.9713 13.7171C15.9275 13.7585 15.8838 13.7998 15.8387 13.8425C15.2554 14.4524 15.0548 15.2416 15.0514 16.0664C15.066 16.8663 15.3641 17.5134 15.9026 18.0942C15.964 18.1606 15.964 18.1606 16.0266 18.2283C16.6299 18.818 17.4105 19.0208 18.2263 19.0242C19.0175 19.0095 19.6576 18.708 20.2321 18.1637C20.2977 18.1016 20.2977 18.1016 20.3647 18.0383C20.9479 17.4284 21.1486 16.6392 21.1519 15.8143C21.1373 15.0144 20.8392 14.3673 20.3008 13.7866C20.2394 13.7202 20.2394 13.7202 20.1768 13.6525C19.5735 13.0628 18.7929 12.86 17.977 12.8566C17.1858 12.8713 16.5457 13.1727 15.9713 13.7171ZM24.2179 13.7171C24.1742 13.7585 24.1304 13.7998 24.0853 13.8425C23.5021 14.4524 23.3014 15.2416 23.2981 16.0664C23.3126 16.8663 23.6108 17.5134 24.1492 18.0942C24.2106 18.1606 24.2106 18.1606 24.2732 18.2283C24.8765 18.818 25.6571 19.0208 26.473 19.0242C27.2642 19.0095 27.9043 18.708 28.4787 18.1637C28.5444 18.1016 28.5444 18.1016 28.6113 18.0383C29.1946 17.4284 29.3952 16.6392 29.3986 15.8143C29.384 15.0144 29.0858 14.3673 28.5474 13.7866C28.486 13.7202 28.486 13.7202 28.4234 13.6525C27.8201 13.0628 27.0395 12.86 26.2236 12.8566C25.4324 12.8713 24.7924 13.1727 24.2179 13.7171Z" fill="#F5F7FA"/>
</svg>
