<svg width="123" height="46" viewBox="0 0 123 46" fill="none" xmlns="http://www.w3.org/2000/svg">
<path d="M13.976 35.48C9.912 35.48 6.728 34.36 4.424 32.12C2.12 29.88 0.968 26.808 0.968 22.904C0.968 20.376 1.464 18.168 2.456 16.28C3.448 14.392 4.824 12.92 6.584 11.864C8.376 10.808 10.456 10.28 12.824 10.28C15.16 10.28 17.112 10.776 18.68 11.768C20.248 12.76 21.432 14.152 22.232 15.944C23.064 17.736 23.48 19.832 23.48 22.232V23.816H5.816V20.648H19.208L18.392 21.32C18.392 19.08 17.912 17.368 16.952 16.184C16.024 15 14.664 14.408 12.872 14.408C10.888 14.408 9.352 15.112 8.264 16.52C7.208 17.928 6.68 19.896 6.68 22.424V23.048C6.68 25.672 7.32 27.64 8.6 28.952C9.912 30.232 11.752 30.872 14.12 30.872C15.496 30.872 16.776 30.696 17.96 30.344C19.176 29.96 20.328 29.352 21.416 28.52L23.192 32.552C22.04 33.48 20.664 34.2 19.064 34.712C17.464 35.224 15.768 35.48 13.976 35.48ZM27.1209 35V16.808C27.1209 15.816 27.0889 14.808 27.0249 13.784C26.9609 12.76 26.8649 11.752 26.7369 10.76H32.5449L33.0249 15.56H32.4489C33.2169 13.864 34.3529 12.568 35.8569 11.672C37.3609 10.744 39.1049 10.28 41.0889 10.28C43.9369 10.28 46.0809 11.08 47.5209 12.68C48.9609 14.28 49.6809 16.776 49.6809 20.168V35H43.6809V20.456C43.6809 18.504 43.2969 17.112 42.5289 16.28C41.7929 15.416 40.6729 14.984 39.1689 14.984C37.3129 14.984 35.8409 15.56 34.7529 16.712C33.6649 17.864 33.1209 19.4 33.1209 21.32V35H27.1209ZM52.2027 45.656C51.5947 45.656 50.9387 45.608 50.2347 45.512C49.4987 45.416 48.8587 45.256 48.3147 45.032V40.28C48.7307 40.408 49.1787 40.52 49.6587 40.616C50.1387 40.712 50.6027 40.76 51.0507 40.76C52.2027 40.76 53.0987 40.408 53.7387 39.704C54.4107 39 54.7467 37.816 54.7467 36.152V10.76H60.7467V36.488C60.7467 39.496 60.0587 41.768 58.6827 43.304C57.3067 44.872 55.1467 45.656 52.2027 45.656ZM54.3627 6.2V0.343997H61.0347V6.2H54.3627ZM76.6224 35.48C74.1264 35.48 71.9664 34.968 70.1424 33.944C68.3184 32.92 66.8944 31.464 65.8704 29.576C64.8784 27.688 64.3824 25.448 64.3824 22.856C64.3824 20.264 64.8784 18.04 65.8704 16.184C66.8944 14.296 68.3184 12.84 70.1424 11.816C71.9664 10.792 74.1264 10.28 76.6224 10.28C79.1184 10.28 81.2784 10.792 83.1024 11.816C84.9584 12.84 86.3824 14.296 87.3744 16.184C88.3984 18.04 88.9104 20.264 88.9104 22.856C88.9104 25.448 88.3984 27.688 87.3744 29.576C86.3824 31.464 84.9584 32.92 83.1024 33.944C81.2784 34.968 79.1184 35.48 76.6224 35.48ZM76.6224 30.872C78.5104 30.872 80.0144 30.216 81.1344 28.904C82.2544 27.56 82.8144 25.544 82.8144 22.856C82.8144 20.168 82.2544 18.168 81.1344 16.856C80.0144 15.544 78.5104 14.888 76.6224 14.888C74.7344 14.888 73.2304 15.544 72.1104 16.856C70.9904 18.168 70.4304 20.168 70.4304 22.856C70.4304 25.544 70.9904 27.56 72.1104 28.904C73.2304 30.216 74.7344 30.872 76.6224 30.872ZM91.6959 45.896L90.3039 41.144C91.8079 40.824 93.0719 40.456 94.0959 40.04C95.1199 39.624 95.9679 39.08 96.6399 38.408C97.3119 37.736 97.8719 36.872 98.3199 35.816L99.5199 32.984L99.3759 35.336L88.8159 10.76H95.1999L102.784 29.672H101.392L109.024 10.76H115.072L104.032 36.344C103.296 38.072 102.496 39.496 101.632 40.616C100.768 41.768 99.8399 42.68 98.8479 43.352C97.8559 44.056 96.7679 44.6 95.5839 44.984C94.3999 45.368 93.1039 45.672 91.6959 45.896Z" fill="white"/>
<path d="M116.126 35V28.328H122.846V35H116.126Z" fill="#F45B69"/>
</svg>
