<svg width="52" height="52" viewBox="0 0 52 52" fill="none" xmlns="http://www.w3.org/2000/svg">
<rect x="1" y="1" width="50" height="50" rx="9" stroke="white" stroke-width="2"/>
<g clip-path="url(#clip0_3774_749)">
<path d="M18.7344 11.0645C15.125 11.4688 12.0605 14.1875 11.2461 17.7148C11.1758 18.002 11.0938 18.4941 11.0645 18.8047C10.9766 19.584 10.9766 32.416 11.0645 33.1953C11.3281 35.6211 12.5527 37.7773 14.498 39.2363C15.7871 40.209 17.1992 40.7656 18.8047 40.9355C19.584 41.0234 32.416 41.0234 33.1953 40.9355C35.6211 40.6719 37.7773 39.4473 39.2363 37.502C40.209 36.2129 40.7656 34.8008 40.9355 33.1953C41.0234 32.416 41.0234 19.584 40.9355 18.8047C40.4902 14.709 37.291 11.5098 33.1953 11.0645C32.5098 10.9883 19.4023 10.9883 18.7344 11.0645ZM33.6113 13.4844C36.1602 14.0938 37.9824 15.9395 38.5215 18.4531C38.6211 18.9043 38.627 19.4258 38.627 26C38.627 32.5742 38.6211 33.0957 38.5215 33.5469C37.9766 36.0898 36.0898 37.9766 33.5469 38.5215C33.0957 38.6211 32.5742 38.627 26 38.627C19.4258 38.627 18.9043 38.6211 18.4531 38.5215C15.9395 37.9824 14.0938 36.1602 13.4844 33.6113C13.3848 33.2129 13.3789 32.6445 13.3555 26.3223C13.332 19.0332 13.3379 18.8809 13.6133 17.9258C14.1992 15.8984 15.8223 14.252 17.8379 13.6367C18.7812 13.3496 18.7168 13.3555 26.1758 13.3672C32.6621 13.3789 33.207 13.3848 33.6113 13.4844Z" fill="white"/>
<path d="M33.8047 16.6895C33.5234 16.7715 33.166 17.1583 33.084 17.4571C32.9492 17.9786 33.1543 18.5235 33.5996 18.7989C33.9336 19.0098 34.502 18.9981 34.8301 18.7813C35.1934 18.5411 35.3457 18.254 35.3457 17.7969C35.3457 17.3458 35.1934 17.0528 34.8477 16.8243C34.5957 16.6544 34.1152 16.5958 33.8047 16.6895Z" fill="white"/>
<path d="M24.916 18.002C23.1348 18.248 21.5586 19.0391 20.293 20.3105C17.1289 23.4863 17.1406 28.5547 20.3106 31.707C23.4805 34.8652 28.5195 34.8652 31.6895 31.707C34.8652 28.5488 34.8652 23.4512 31.6895 20.293C29.8906 18.5 27.3945 17.6562 24.916 18.002ZM26.9434 20.3457C30.084 20.8965 32.1934 23.8496 31.6543 26.9434C31.1035 30.084 28.1504 32.1934 25.0567 31.6543C21.916 31.1035 19.8067 28.1504 20.3457 25.0566C20.8965 21.916 23.8496 19.8066 26.9434 20.3457Z" fill="white"/>
</g>
<defs>
<clipPath id="clip0_3774_749">
<rect width="30" height="30" fill="white" transform="translate(11 11)"/>
</clipPath>
</defs>
</svg>
