<svg width="32" height="32" viewBox="0 0 32 32" fill="none" xmlns="http://www.w3.org/2000/svg">
<path d="M9.56668 29.3C8.90001 29.3 8.33334 29.0666 7.86668 28.6C7.40001 28.1333 7.16668 27.5666 7.16668 26.9C7.16668 26.2333 7.40001 25.6666 7.86668 25.2C8.33334 24.7333 8.90001 24.5 9.56668 24.5C10.2333 24.5 10.8 24.7333 11.2667 25.2C11.7333 25.6666 11.9667 26.2333 11.9667 26.9C11.9667 27.5666 11.7333 28.1333 11.2667 28.6C10.8 29.0666 10.2333 29.3 9.56668 29.3ZM22.9 29.3C22.2333 29.3 21.6667 29.0666 21.2 28.6C20.7333 28.1333 20.5 27.5666 20.5 26.9C20.5 26.2333 20.7333 25.6666 21.2 25.2C21.6667 24.7333 22.2333 24.5 22.9 24.5C23.5667 24.5 24.1333 24.7333 24.6 25.2C25.0667 25.6666 25.3 26.2333 25.3 26.9C25.3 27.5666 25.0667 28.1333 24.6 28.6C24.1333 29.0666 23.5667 29.3 22.9 29.3ZM7.83334 7.29996L11.5 14.9H21.1L25.2667 7.29996H7.83334ZM6.83334 5.29996H26.4667C26.9778 5.29996 27.3667 5.53329 27.6333 5.99996C27.9 6.46663 27.9 6.93329 27.6333 7.39996L23.1333 15.5C22.8889 15.9222 22.5722 16.2611 22.1833 16.5166C21.7945 16.7722 21.3667 16.9 20.9 16.9H10.8L8.93334 20.3666H25.3V22.3666H9.23335C8.30001 22.3666 7.62779 22.0555 7.21668 21.4333C6.80557 20.8111 6.81112 20.1111 7.23335 19.3333L9.36668 15.4L4.30001 4.66663H1.70001V2.66663H5.60001L6.83334 5.29996ZM11.5 14.9H21.1H11.5Z" fill="white"/>
</svg>
