<svg width="52" height="52" viewBox="0 0 52 52" fill="none" xmlns="http://www.w3.org/2000/svg">
<rect x="1" y="1" width="50" height="50" rx="9" stroke="white" stroke-width="2"/>
<path d="M21.6641 15.2246C18.6055 15.3008 15.9805 15.5118 15.0137 15.7461C13.5723 16.1035 12.3418 17.1758 11.7852 18.5528C10.8594 20.8379 10.7422 29.4219 11.5918 32.8262C11.9785 34.3848 13.1797 35.6621 14.7207 36.1602C16.2617 36.6524 22.7891 36.9395 29.211 36.793C33.4649 36.6934 35.8555 36.5293 36.9863 36.2539C37.584 36.1075 38.4102 35.6973 38.8555 35.3282C39.5352 34.7598 40.0801 33.9395 40.3438 33.084C41.1231 30.5469 41.2109 22.877 40.4961 19.5606C40.2442 18.3711 39.9395 17.791 39.1543 17C38.4102 16.25 37.6484 15.8692 36.4883 15.6641C34.25 15.2657 27.6758 15.0723 21.6641 15.2246ZM29.8965 17.5625C33.166 17.6621 35.1817 17.7969 36.207 17.9961C37.3145 18.2129 37.959 18.8575 38.2109 20.0235C38.8731 23.1348 38.7324 31.0625 37.9824 32.7207C37.6895 33.3653 37.0742 33.8399 36.3301 33.9981C33.2891 34.6426 19.1211 34.6485 15.793 34.0039C14.9727 33.8457 14.3457 33.3946 14.0352 32.7325C13.7129 32.0528 13.4961 30.377 13.3906 27.6524C13.2676 24.5586 13.5254 20.6739 13.9297 19.5137C14.2051 18.7285 14.8379 18.1719 15.6817 18.002C17.4981 17.6211 24.5527 17.4043 29.8965 17.5625Z" fill="white"/>
<path d="M22.1328 26V32.1641L22.3262 32.0527C22.4258 31.9941 24.8164 30.6113 27.6289 28.9883C30.4355 27.3652 32.7383 26.0176 32.7383 26C32.7383 25.9824 30.4355 24.6348 27.6289 23.0117C24.8164 21.3887 22.4258 20.0059 22.3262 19.9473L22.1328 19.8359V26ZM27.3359 25.543C27.7285 25.7715 28.0508 25.9766 28.0508 26C28.0508 26.0234 27.7285 26.2285 27.3359 26.457C26.9375 26.6797 26.1348 27.1426 25.5488 27.4824L24.4766 28.1035V26V23.8965L25.5488 24.5176C26.1348 24.8574 26.9375 25.3203 27.3359 25.543Z" fill="white"/>
</svg>
